<?xml version="1.0" encoding="utf-8"?>
<svg version="1.1" id="Layer_1" x="0px" y="0px" viewBox="15.207 15.228 180.527 33.808" style="enable-background:new 0 0 210.4 64.3;" xmlns="http://www.w3.org/2000/svg">
  <style type="text/css">
	.st0{fill:#323E48;}
	.st1{fill:#FFFFFF;}
	.st2{fill:url(#SVGID_00000127763818943397767930000015173175176094938008_);}
	.st3{fill:url(#SVGID_00000020396437782427039480000012733710456648730026_);}
</style>
  <g>
    <g>
      <path class="st0" d="M49,22.7c0-4.1-3.3-7.4-7.4-7.4H22.7c-4.1,0-7.4,3.3-7.4,7.4v6.1c0,4.1,3.3,7.4,7.4,7.4V22.7L49,22.7z"/>
      <path class="st0" d="M15.3,41.6c0,4.1,3.3,7.4,7.4,7.4h18.8c4.1,0,7.4-3.3,7.4-7.4v-6.1c0-4.1-3.3-7.4-7.4-7.4v13.5L15.3,41.6z"/>
      <path class="st0" d="M187.5,27.7c0.9,0,1.6,0.2,2.2,0.7c0.6,0.5,1,1.1,1.2,1.8l-7.2,1.4c0-1.2,0.4-2.2,1.1-2.9 C185.5,28,186.4,27.7,187.5,27.7 M188.1,36.2c-1,0-1.8-0.2-2.4-0.5c-0.7-0.4-1.2-0.9-1.5-1.6l10.9-2.1c0-1.5-0.3-2.9-1-4 c-0.7-1.1-1.6-2-2.7-2.6c-1.1-0.6-2.4-0.9-3.8-0.9c-1.5,0-2.8,0.3-4,1c-1.2,0.6-2.1,1.5-2.8,2.7c-0.7,1.2-1,2.5-1,3.9 c0,1.5,0.3,2.8,1,3.9c0.7,1.1,1.7,2,3,2.7c1.3,0.6,2.7,1,4.4,1c2.7,0,4.7-0.8,6.1-2.4l-2.3-2.5c-0.5,0.5-1.1,0.9-1.7,1.1 C189.5,36.1,188.8,36.2,188.1,36.2 M172.8,26.6v-1.9h-4.1v14.7h4.3v-6.9c0-1.4,0.3-2.4,1-3.1c0.7-0.7,1.6-1,2.9-1 c0.2,0,0.5,0,1,0.1v-3.9c-1.1,0-2.1,0.2-3,0.5C174,25.4,173.3,25.9,172.8,26.6 M157.6,36.1c-1.1,0-2-0.4-2.7-1.1 c-0.7-0.7-1.1-1.7-1.1-3c0-1.2,0.4-2.2,1.1-3c0.7-0.7,1.6-1.1,2.7-1.1c1.1,0,2,0.4,2.7,1.1c0.7,0.7,1.1,1.7,1.1,3 c0,1.2-0.4,2.2-1.1,3C159.6,35.7,158.7,36.1,157.6,36.1 M157.6,39.6c1.5,0,2.9-0.3,4.2-1c1.2-0.6,2.2-1.5,2.9-2.7 c0.7-1.1,1-2.4,1-3.9c0-1.5-0.3-2.8-1-3.9c-0.7-1.1-1.6-2-2.9-2.7c-1.2-0.6-2.6-1-4.2-1c-1.5,0-2.9,0.3-4.2,1 c-1.2,0.6-2.2,1.5-2.9,2.7c-0.7,1.1-1,2.4-1,3.9c0,1.5,0.3,2.8,1,3.9c0.7,1.1,1.7,2,2.9,2.7C154.7,39.3,156,39.6,157.6,39.6 M141.3,39.6c1.5,0,2.9-0.3,4.1-1c1.2-0.7,2-1.6,2.5-2.7l-3.3-1.8c-0.7,1.3-1.8,2-3.3,2c-1.1,0-2-0.4-2.8-1.1 c-0.7-0.7-1.1-1.7-1.1-3s0.4-2.2,1.1-3c0.7-0.7,1.6-1.1,2.8-1.1c1.4,0,2.5,0.7,3.3,2l3.3-1.8c-0.5-1.2-1.4-2.1-2.5-2.8 c-1.2-0.6-2.5-1-4.1-1c-1.6,0-3,0.3-4.2,1c-1.2,0.6-2.2,1.5-2.9,2.7c-0.7,1.1-1.1,2.4-1.1,3.9c0,1.5,0.4,2.8,1.1,3.9 c0.7,1.1,1.7,2,2.9,2.7C138.4,39.3,139.8,39.6,141.3,39.6 M124.2,24.5c-1.1,0-2.1,0.2-3,0.6c-0.9,0.4-1.7,1-2.3,1.8 c-0.5-0.8-1.2-1.4-2-1.8c-0.8-0.4-1.8-0.6-2.8-0.6c-0.9,0-1.8,0.2-2.6,0.5c-0.8,0.3-1.5,0.8-2,1.4v-1.7h-4.1v14.7h4.3V32 c0-1.3,0.3-2.2,0.9-2.9c0.6-0.6,1.4-1,2.3-1c1.9,0,2.8,1.2,2.8,3.5v7.8h4.3V32c0-1.3,0.3-2.2,0.9-2.9c0.6-0.6,1.4-1,2.4-1 c0.9,0,1.6,0.3,2.1,0.9c0.5,0.6,0.7,1.4,0.7,2.6v7.8h4.3V31c0-2.2-0.5-3.8-1.6-4.9C127.5,25,126,24.5,124.2,24.5 M93.3,36.1 c-1.1,0-2-0.4-2.7-1.1c-0.7-0.7-1.1-1.7-1.1-3c0-1.2,0.4-2.2,1.1-3c0.7-0.7,1.6-1.1,2.7-1.1c1.1,0,2,0.4,2.7,1.1 c0.7,0.7,1.1,1.7,1.1,3c0,1.2-0.4,2.2-1.1,3C95.3,35.7,94.4,36.1,93.3,36.1 M97,24.7v1.6c-1.1-1.2-2.5-1.8-4.4-1.8 c-1.4,0-2.6,0.3-3.8,0.9c-1.1,0.6-2,1.5-2.6,2.6c-0.6,1.1-1,2.5-1,4c0,1.5,0.3,2.8,1,4c0.6,1.1,1.5,2,2.6,2.7 c1.1,0.6,2.4,0.9,3.8,0.9c2,0,3.5-0.6,4.6-1.9v1.7h4.1V24.7H97z M81.7,39.6c0.8,0,1.5-0.1,2.2-0.4l-0.2-3.3 c-0.1,0.1-0.3,0.1-0.5,0.2c-0.2,0.1-0.5,0.1-0.7,0.1c-0.6,0-1-0.2-1.4-0.5c-0.3-0.3-0.5-0.8-0.5-1.4V19.4h-4.3v15.1 c0,1.6,0.5,2.9,1.4,3.8C78.7,39.2,80,39.6,81.7,39.6 M66.6,39.6c1.4,0,2.7-0.2,3.7-0.6c1-0.4,1.8-0.9,2.4-1.7 c0.5-0.7,0.8-1.5,0.8-2.4c0-1.1-0.3-1.9-0.8-2.5c-0.6-0.6-1.2-1-2-1.2c-0.8-0.2-1.7-0.4-3-0.6c-1.1-0.2-1.9-0.3-2.3-0.5 c-0.5-0.2-0.7-0.5-0.7-1c0-0.4,0.2-0.7,0.7-1c0.5-0.3,1.1-0.4,2-0.4c1.5,0,2.9,0.4,4.2,1.1l1.4-3c-0.7-0.4-1.5-0.7-2.6-0.9 c-1-0.2-2.1-0.3-3.1-0.3c-1.4,0-2.6,0.2-3.6,0.6c-1,0.4-1.8,1-2.3,1.7c-0.5,0.7-0.8,1.5-0.8,2.5c0,1.1,0.3,2,0.9,2.6 c0.6,0.6,1.3,1,2,1.3c0.8,0.2,1.8,0.4,3,0.6c1,0.1,1.8,0.3,2.3,0.5c0.5,0.2,0.7,0.5,0.7,0.9c0,0.9-0.9,1.3-2.7,1.3 c-0.9,0-1.8-0.1-2.7-0.4c-0.9-0.3-1.7-0.6-2.4-1L60.2,38c0.7,0.5,1.6,0.8,2.8,1.1C64.1,39.5,65.3,39.6,66.6,39.6"/>
    </g>
  </g>
  <g>
    <defs>
      <path id="SVGID_00000125585690255158941230000013729422265550693271_" d="M32.1,26.9c-2.9,0-5.2,2.3-5.2,5.2 c0,2.9,2.3,5.2,5.2,5.2c2.9,0,5.2-2.3,5.2-5.2C37.4,29.3,35,26.9,32.1,26.9"/>
    </defs>
    <linearGradient id="SVGID_00000009586740840176156560000012491672386355361960_" gradientUnits="userSpaceOnUse" x1="37.3646" y1="32.142" x2="26.9185" y2="32.142" gradientTransform="matrix(0 1 -1 0 64.2836 4.530728e-04)">
      <stop offset="0" style="stop-color:#FF5A5A"/>
      <stop offset="1" style="stop-color:#FF6D37"/>
    </linearGradient>
    <path d="M32.1,26.9c-2.9,0-5.2,2.3-5.2,5.2 c0,2.9,2.3,5.2,5.2,5.2c2.9,0,5.2-2.3,5.2-5.2C37.4,29.3,35,26.9,32.1,26.9" transform="matrix(1, 0, 0, 1, 0, 0)" style="overflow: visible; fill: url(#SVGID_00000009586740840176156560000012491672386355361960_);"/>
  </g>
</svg>