<svg xmlns="http://www.w3.org/2000/svg" viewBox="0 0 175 28"><defs><style>.cls-1{fill:#2f2e2e;}.cls-2{fill:#e6243a;}</style></defs><title>SLAMcore-black</title><g id="Layer_0_Image" data-name="Layer 0 Image"><path class="cls-1" d="M158,27.26h-8.57l-6.57-10.2v10.2H136V.74h10.71a10.54,10.54,0,0,1,3.86.65,7.26,7.26,0,0,1,4.34,4.38,8.91,8.91,0,0,1,.55,3.17,7.78,7.78,0,0,1-1.46,4.9,7.29,7.29,0,0,1-4.3,2.55ZM142.88,12.59h1.3a5,5,0,0,0,3.13-.84,2.9,2.9,0,0,0,1.09-2.43,2.93,2.93,0,0,0-1.09-2.43,5,5,0,0,0-3.13-.84h-1.3Z"/><path class="cls-1" d="M175,6.58h-8.18V11h7.72v5.84h-7.72v4.57H175v5.84H159.93V.74H175Z"/><path class="cls-2" d="M112.25,14.05a13.28,13.28,0,0,1,1-5.22,12.9,12.9,0,0,1,7.25-7,16.06,16.06,0,0,1,11.21,0,13.18,13.18,0,0,1,4.42,2.82,13.1,13.1,0,0,1,3.92,9.45,13.11,13.11,0,0,1-1,5.22,12.87,12.87,0,0,1-2.88,4.22,13,13,0,0,1-4.42,2.82,15.91,15.91,0,0,1-11.21,0,12.93,12.93,0,0,1-7.25-7A13.28,13.28,0,0,1,112.25,14.05Zm6.83,0a6.7,6.7,0,0,0,.57,2.77,7.12,7.12,0,0,0,1.53,2.2,7,7,0,0,0,2.25,1.45,7.28,7.28,0,0,0,7.7-1.45,7,7,0,0,0,1.55-2.2,6.69,6.69,0,0,0,.56-2.77,6.66,6.66,0,0,0-.56-2.77,6.9,6.9,0,0,0-1.55-2.2,7.13,7.13,0,0,0-2.27-1.46,7.48,7.48,0,0,0-5.43,0,7,7,0,0,0-3.78,3.66A6.66,6.66,0,0,0,119.08,14.05Z"/><path class="cls-1" d="M15.74,7.53a8.72,8.72,0,0,0-2.25-1.36,6.05,6.05,0,0,0-2.18-.44,3.55,3.55,0,0,0-2.18.64A2,2,0,0,0,8.29,8a1.64,1.64,0,0,0,.42,1.16A3.51,3.51,0,0,0,9.82,10a8.38,8.38,0,0,0,1.54.58c.58.17,1.14.34,1.71.53a10.59,10.59,0,0,1,4.93,3A7.43,7.43,0,0,1,19.56,19a9.48,9.48,0,0,1-.68,3.69,7.77,7.77,0,0,1-2,2.83,9.17,9.17,0,0,1-3.23,1.83A13.6,13.6,0,0,1,9.31,28,16,16,0,0,1,0,25l3-5.56a11.65,11.65,0,0,0,3.06,2,7.23,7.23,0,0,0,3,.67,3.57,3.57,0,0,0,2.51-.77,2.25,2.25,0,0,0-.08-3.61,5.5,5.5,0,0,0-1.29-.68c-.52-.22-1.16-.45-1.91-.71s-1.76-.59-2.62-.93a8.38,8.38,0,0,1-2.28-1.35A6.41,6.41,0,0,1,1.7,12a7.56,7.56,0,0,1-.61-3.26,9.5,9.5,0,0,1,.65-3.57A7.85,7.85,0,0,1,3.57,2.41,8.21,8.21,0,0,1,6.45.63,10.87,10.87,0,0,1,10.26,0a16.39,16.39,0,0,1,4.11.55,18,18,0,0,1,4.11,1.6Z"/><path class="cls-1" d="M27.83.74V21.42h8.26v5.84H21V.74Z"/><path class="cls-1" d="M56.23,22.65H46.39l-1.58,4.61H37.47L47.55.74h7.52L65.15,27.26H57.81ZM54.4,17.41,51.31,8.58l-3.09,8.83Z"/><path class="cls-1" d="M66.9,27.26,71.4.74h6.81l5.31,14.14L88.78.74H95.6l4.49,26.52H93.24L91,12,84.71,27.26H82L76,12,73.75,27.26Z"/><path class="cls-1" d="M116.7,20.4a7.35,7.35,0,0,1-5.43,0A6.85,6.85,0,0,1,109,19a7,7,0,0,1-1.53-2.2,7,7,0,0,1,0-5.54A7,7,0,0,1,109,9a6.85,6.85,0,0,1,2.25-1.45,7.35,7.35,0,0,1,5.43,0,6.41,6.41,0,0,1,1.11.56l3.28-5.7a14.69,14.69,0,0,0-1.5-.7,15.94,15.94,0,0,0-11.22,0,12.87,12.87,0,0,0-7.24,7,13.11,13.11,0,0,0-1,5.22,13.11,13.11,0,0,0,1,5.22,12.87,12.87,0,0,0,7.24,7,15.94,15.94,0,0,0,11.22,0,13.34,13.34,0,0,0,1.7-.82L118,19.72A6.77,6.77,0,0,1,116.7,20.4Z"/></g></svg>